if (_typeface_js && _typeface_js.loadFace) _typeface_js.loadFace({"glyphs":{"":{"x_min":0,"x_max":1053.203125,"ha":993,"o":"m 0 952 l 33 962 l 324 962 l 414 962 l 481 1053 l 515 1053 l 515 1075 q 604 1041 582 1086 l 637 974 l 750 974 q 806 952 772 940 l 1053 952 l 1053 918 l 962 918 l 952 895 l 795 895 l 772 873 q 637 895 750 907 q 548 851 593 851 l 493 773 l 493 716 l 470 705 l 481 682 l 436 593 l 414 582 q 391 515 425 526 l 403 503 l 235 156 l 212 -44 l 179 -44 l 179 134 l 223 223 l 212 246 l 235 268 l 235 324 l 302 470 q 324 537 290 526 l 313 582 l 335 604 q 358 671 324 660 l 358 750 l 403 817 l 391 851 l 313 851 l 279 817 l 44 795 l 0 817 l 0 952 "},"":{"x_min":0,"x_max":0,"ha":884},"":{"x_min":0,"x_max":1120,"ha":1020,"o":"m 403 414 l 391 436 l 448 493 l 481 493 l 515 526 l 515 560 l 660 739 l 671 784 q 593 750 593 772 l 503 750 l 492 728 l 425 739 l 335 705 l 325 739 l 302 739 l 291 682 l 190 649 q 67 582 111 548 l 11 660 q 67 784 33 773 l 111 784 q 291 917 156 895 l 369 906 l 391 940 l 604 940 l 682 985 l 773 985 l 783 1007 q 930 1041 885 996 l 930 929 l 907 906 l 918 895 l 739 682 q 682 660 694 694 l 705 615 l 582 458 l 548 458 q 403 279 391 302 l 381 279 l 325 223 l 325 201 q 257 134 268 201 q 313 156 302 123 l 335 123 q 458 123 347 145 l 492 101 l 570 101 l 593 78 l 604 101 q 761 44 728 78 l 783 55 l 806 33 l 828 38 l 974 38 l 996 55 l 1041 11 l 1075 22 l 1120 0 l 1120 -12 l 1086 -12 l 806 -12 l 773 -34 l 773 -12 l 660 -22 l 615 22 l 503 33 l 492 11 l 481 22 l 369 11 l 313 55 l 291 0 l 246 22 l 156 22 l 156 0 l 123 22 q 0 0 111 -12 l 0 11 l 179 223 l 280 279 l 291 324 l 335 335 l 369 414 l 403 414 "},"":{"x_min":-190,"x_max":706,"ha":770,"o":"m 403 437 l 403 426 l 414 426 l 414 437 l 403 437 m 241 410 l 241 387 l 363 421 q 521 500 453 500 l 498 589 l 476 601 l 487 645 l 419 634 q 352 668 408 690 l 330 578 l 285 567 q 241 410 296 511 m 90 125 l 78 180 l 112 281 l 135 270 q 101 326 145 315 l 179 405 l 157 416 l 224 629 l 247 651 l 247 696 q 179 786 169 718 l 224 875 q 303 909 303 887 l 291 931 q 313 988 325 954 l 336 998 l 392 998 l 437 976 l 460 897 l 437 853 l 572 797 l 572 752 q 594 495 695 718 l 403 394 q 213 338 336 394 l 90 36 l 78 -19 l 191 14 l 269 14 q 369 46 336 69 l 403 80 l 471 69 l 471 102 l 527 113 q 572 135 516 147 q 561 214 538 169 q 549 304 516 225 q 403 360 460 214 q 504 428 425 416 l 572 428 l 594 394 q 695 349 661 416 l 683 315 l 706 304 l 706 169 l 650 135 l 661 113 q 56 -64 538 -19 l 34 -120 l 34 -76 q -190 -109 -10 -64 l -190 -98 l 45 -30 l 67 125 l 90 125 "},"":{"x_min":0,"x_max":606.46875,"ha":657,"o":"m 179 448 l 179 425 l 324 481 q 471 560 436 582 l 471 593 l 426 660 l 436 694 l 392 682 q 302 728 324 750 l 279 638 l 235 615 q 179 448 235 492 m 0 22 l 33 190 l 56 201 q 56 302 33 246 l 101 358 l 101 381 l 67 391 l 111 425 q 145 481 101 448 l 123 503 l 190 705 l 213 739 l 213 773 q 145 862 134 795 q 268 985 179 974 l 279 1064 l 381 1064 q 426 985 426 1030 l 403 929 l 538 873 l 538 828 q 605 694 616 806 l 582 660 q 493 515 605 570 l 481 526 l 313 448 l 190 425 l 111 280 l 0 -44 l 0 22 "},"":{"x_min":-2.5625,"x_max":1108.609375,"ha":1145,"o":"m 112 538 l 112 335 q 414 112 302 123 l 582 112 l 593 134 l 649 123 l 817 212 l 952 324 q 985 503 985 369 l 1007 515 l 996 583 q 918 560 985 548 l 940 594 l 850 616 q 817 717 839 717 l 738 751 l 637 862 l 492 840 l 448 862 q 280 818 425 818 l 268 751 q 179 694 223 751 l 134 548 l 112 538 m 963 605 l 963 594 l 1007 616 l 1007 627 l 963 605 m 1007 459 l 1007 448 l 1019 448 l 1019 459 l 1007 459 m 1029 493 l 1029 482 l 1053 482 l 1053 493 l 1029 493 m 0 459 l 22 470 l 0 571 l 56 627 l 44 683 l 101 706 l 156 828 l 145 840 l 223 918 l 235 907 l 335 996 l 448 1053 l 458 1041 q 503 1064 492 1030 l 660 1064 l 682 1041 l 761 1053 l 873 974 l 873 952 l 873 940 l 907 952 q 1075 717 1007 862 q 1108 594 1041 672 l 1097 594 l 1108 538 l 1063 459 l 1075 436 l 1029 403 l 1041 369 l 795 89 l 761 101 l 727 56 l 716 67 q 537 11 627 22 q 324 22 492 56 l 89 179 l 11 290 l 22 358 q 0 459 -10 380 "},"":{"x_min":5,"x_max":525.84375,"ha":575,"o":"m 5 1030 q 200 1030 146 1142 l 190 1019 l 212 952 l 167 907 l 178 885 l 167 885 l 167 862 l 212 828 q 190 706 178 806 q 223 616 223 716 l 245 616 l 290 784 l 346 840 q 346 929 324 907 l 402 1064 l 447 1098 l 458 1098 l 525 1041 l 525 985 q 481 862 481 907 l 436 817 l 369 672 l 324 627 l 335 616 l 245 459 l 279 369 l 223 414 l 133 291 l 11 -22 l 133 403 q 156 548 190 470 l 111 582 q 89 660 123 649 l 111 694 q 100 750 66 716 q 5 1019 5 840 l 5 1030 "},"":{"x_min":0.125,"x_max":1086.546875,"ha":1031,"o":"m 0 762 q 145 851 11 829 q 224 751 213 806 l 213 683 l 257 605 l 246 538 l 359 335 l 347 302 l 381 302 l 414 358 l 381 381 l 392 504 l 325 583 q 403 672 359 650 l 448 650 q 537 706 493 717 l 604 627 l 593 538 l 672 448 q 672 392 649 403 l 694 403 l 795 302 l 818 257 l 818 324 l 840 335 l 806 414 l 818 426 q 873 516 773 516 l 795 538 q 773 605 806 593 l 773 694 l 818 762 l 907 762 l 985 683 l 963 471 l 940 448 l 968 436 l 968 179 l 918 134 l 952 56 q 1086 -56 1041 0 l 1053 -67 l 929 34 l 918 34 l 963 -168 l 885 -78 l 851 56 l 739 190 l 728 179 q 593 358 638 246 l 571 347 l 503 403 l 493 324 l 426 201 q 493 0 414 123 q 571 -123 526 0 l 682 -257 l 615 -235 l 426 -44 l 426 12 l 392 12 l 381 -67 l 353 -33 l 353 112 l 336 112 l 291 190 l 302 223 q 280 313 246 246 l 224 313 q 246 392 213 381 l 235 403 q 156 426 179 369 l 156 471 l 112 526 l 101 583 q 22 683 67 583 l 34 694 l 0 762 "},"":{"x_min":0.328125,"x_max":807,"ha":863,"o":"m 414 835 l 414 706 l 593 448 q 734 290 683 381 l 734 145 l 706 45 l 672 45 l 660 -11 q 504 -134 560 -134 q 313 -134 448 -111 l 112 -11 q 79 89 123 78 l 79 257 q 201 324 179 335 q 280 403 213 381 q 392 403 336 381 l 470 347 q 403 179 504 280 l 336 179 l 325 212 q 224 257 280 280 l 218 212 l 218 67 l 280 11 l 302 22 l 369 -34 l 493 -34 l 593 45 l 649 123 q 593 268 672 235 l 593 313 l 548 403 l 504 425 l 470 503 l 414 548 l 426 560 l 336 739 l 336 817 l 213 750 l 179 761 l 112 750 q 11 717 79 717 l 0 728 l 89 806 l 403 929 l 807 974 l 807 962 q 615 884 672 929 l 582 895 l 548 868 q 414 835 414 868 "},"":{"x_min":0,"x_max":850.953125,"ha":808,"o":"m 0 246 q 151 414 151 279 l 178 425 l 178 503 l 201 515 l 190 537 q 212 593 223 559 l 245 604 l 223 637 l 257 711 q 392 678 392 711 l 392 582 l 335 515 q 302 425 346 492 l 302 369 l 268 335 l 268 324 q 381 324 346 346 l 459 369 l 515 537 l 537 548 l 526 570 l 627 739 l 615 783 q 672 918 682 873 l 694 918 l 694 761 q 666 627 666 772 l 638 548 l 638 492 l 615 470 l 627 447 q 604 403 593 436 l 694 403 l 705 431 l 850 431 l 850 425 l 817 403 l 750 403 l 672 346 q 604 346 615 324 l 548 290 l 548 212 l 526 201 l 537 178 q 515 123 503 156 l 481 111 q 470 11 503 44 q 335 33 335 0 l 335 134 l 392 201 q 414 268 381 257 l 403 279 q 245 246 346 246 l 145 33 l 100 -11 l 111 -67 q 55 -191 44 -168 l 34 -191 l 34 -45 l 61 -11 l 61 145 l 88 167 l 100 246 l 0 223 l 0 246 "},"":{"x_min":0,"x_max":606.46875,"ha":657,"o":"m 179 448 l 179 425 l 324 481 q 471 560 436 582 l 471 593 l 426 660 l 436 694 l 392 682 q 302 728 324 750 l 279 638 l 235 615 q 179 448 235 492 m 0 22 l 33 190 l 56 201 q 56 302 33 246 l 101 358 l 101 381 l 67 391 l 111 425 q 145 481 101 448 l 123 503 l 190 705 l 213 739 l 213 773 q 145 862 134 795 q 268 985 179 974 l 279 1064 l 381 1064 q 426 985 426 1030 l 403 929 l 538 873 l 538 828 q 605 694 616 806 l 582 660 q 493 515 605 570 l 481 526 l 313 448 l 190 425 l 111 280 l 0 -44 l 0 22 "},"":{"x_min":-5.75,"x_max":1030.921875,"ha":1059,"o":"m 0 302 l 11 369 l 34 380 l 22 425 l 45 448 l 67 570 l 112 604 q 123 694 89 671 l 280 873 l 348 862 q 404 963 348 929 l 516 1018 l 650 1058 l 807 1058 l 841 1029 l 829 974 l 919 996 q 997 963 930 963 l 1030 907 l 1030 851 l 997 817 q 885 694 1008 739 q 773 750 829 671 l 784 795 l 762 773 l 605 806 l 561 851 l 561 806 q 280 638 449 817 q 201 615 224 649 l 235 593 q 146 324 168 526 l 112 290 l 157 268 l 157 212 l 213 134 l 201 89 l 360 33 q 504 78 360 11 l 538 66 l 628 111 l 784 245 l 773 190 l 628 56 l 538 11 l 494 22 l 437 -34 l 427 -22 l 303 -56 l 280 -22 q 190 -45 258 -56 l 56 78 l 89 134 l 34 134 l 11 167 l 34 201 q 0 302 -21 245 "},"":{"x_min":-0.421875,"x_max":649,"ha":699,"o":"m 447 157 l 447 134 l 459 134 l 459 157 l 447 157 m 5 156 l 5 470 l 33 481 l 0 526 l 33 582 l 21 649 l 44 672 l 44 784 l 16 784 q 134 941 16 974 l 167 930 l 156 918 q 178 582 212 851 l 234 627 l 324 773 l 515 975 q 649 930 649 975 l 649 918 l 570 896 q 223 515 447 795 l 257 414 l 492 145 l 481 123 l 459 134 l 503 56 l 436 112 l 413 112 q 245 359 335 190 l 178 426 l 178 325 l 161 313 l 161 123 q 134 -145 134 101 l 100 67 l 78 89 l 55 22 l 44 123 l 21 134 l 5 101 l 5 156 "},"":{"x_min":-1.5,"x_max":638.09375,"ha":700,"o":"m 202 583 l 202 369 q 235 67 235 347 l 325 22 l 335 0 l 415 11 l 415 0 q 493 22 437 34 l 471 56 q 537 157 526 101 l 554 146 l 554 335 l 526 392 l 548 392 l 526 425 l 481 436 l 426 538 l 347 583 l 325 571 l 325 605 q 280 583 291 616 l 202 583 m 0 717 q 79 762 34 762 q 146 919 22 885 l 157 919 q 191 778 213 896 q 481 605 381 778 l 537 571 l 615 436 q 593 369 627 381 l 638 324 l 638 101 l 604 34 l 570 34 l 560 -11 l 493 -67 q 392 -44 415 -78 l 370 -67 l 246 11 l 224 0 q 224 -201 246 -56 l 202 34 l 79 179 l 79 201 l 191 90 l 202 90 l 134 504 q 56 549 123 538 q 0 706 -10 616 l 0 717 "},"":{"x_min":5,"x_max":525.84375,"ha":575,"o":"m 5 1030 q 200 1030 146 1142 l 190 1019 l 212 952 l 167 907 l 178 885 l 167 885 l 167 862 l 212 828 q 190 706 178 806 q 223 616 223 716 l 245 616 l 290 784 l 346 840 q 346 929 324 907 l 402 1064 l 447 1098 l 458 1098 l 525 1041 l 525 985 q 481 862 481 907 l 436 817 l 369 672 l 324 627 l 335 616 l 245 459 l 279 369 l 223 414 l 133 291 l 11 -22 l 133 403 q 156 548 190 470 l 111 582 q 89 660 123 649 l 111 694 q 100 750 66 716 q 5 1019 5 840 l 5 1030 "},"":{"x_min":0.0625,"x_max":1030.0625,"ha":955,"o":"m 246 391 l 246 381 l 246 391 m 470 516 l 470 493 l 593 504 l 660 482 l 683 526 l 650 616 q 672 717 638 694 l 650 762 l 683 795 l 683 806 l 650 806 q 627 762 650 762 l 638 728 q 514 638 537 616 l 525 583 l 470 516 m 213 365 l 213 387 q 67 398 78 365 l 78 420 l 89 409 l 246 476 l 280 465 l 335 487 l 325 543 l 381 621 l 414 633 q 480 734 381 722 l 492 823 l 548 890 l 548 924 q 615 1052 627 1025 q 784 968 795 1052 q 795 857 761 890 q 761 711 761 857 l 739 487 l 761 465 l 862 476 l 1007 454 l 1030 431 l 1030 409 l 996 431 l 985 415 l 851 415 l 840 398 q 717 375 717 409 q 706 129 739 297 l 728 5 q 677 162 677 17 l 677 365 q 638 409 677 398 l 391 387 l 325 297 l 269 286 l 280 264 l 269 264 l 291 241 l 22 -39 l 0 -39 l 0 -28 l 134 174 l 191 365 l 213 365 "},"":{"x_min":0.125,"x_max":1086.546875,"ha":1031,"o":"m 0 762 q 145 851 11 829 q 224 751 213 806 l 213 683 l 257 605 l 246 538 l 359 335 l 347 302 l 381 302 l 414 358 l 381 381 l 392 504 l 325 583 q 403 672 359 650 l 448 650 q 537 706 493 717 l 604 627 l 593 538 l 672 448 q 672 392 649 403 l 694 403 l 795 302 l 818 257 l 818 324 l 840 335 l 806 414 l 818 426 q 873 516 773 516 l 795 538 q 773 605 806 593 l 773 694 l 818 762 l 907 762 l 985 683 l 963 471 l 940 448 l 968 436 l 968 179 l 918 134 l 952 56 q 1086 -56 1041 0 l 1053 -67 l 929 34 l 918 34 l 963 -168 l 885 -78 l 851 56 l 739 190 l 728 179 q 593 358 638 246 l 571 347 l 503 403 l 493 324 l 426 201 q 493 0 414 123 q 571 -123 526 0 l 682 -257 l 615 -235 l 426 -44 l 426 12 l 392 12 l 381 -67 l 353 -33 l 353 112 l 336 112 l 291 190 l 302 223 q 280 313 246 246 l 224 313 q 246 392 213 381 l 235 403 q 156 426 179 369 l 156 471 l 112 526 l 101 583 q 22 683 67 583 l 34 694 l 0 762 "},"":{"x_min":0,"x_max":1053.203125,"ha":993,"o":"m 0 952 l 33 962 l 324 962 l 414 962 l 481 1053 l 515 1053 l 515 1075 q 604 1041 582 1086 l 637 974 l 750 974 q 806 952 772 940 l 1053 952 l 1053 918 l 962 918 l 952 895 l 795 895 l 772 873 q 637 895 750 907 q 548 851 593 851 l 493 773 l 493 716 l 470 705 l 481 682 l 436 593 l 414 582 q 391 515 425 526 l 403 503 l 235 156 l 212 -44 l 179 -44 l 179 134 l 223 223 l 212 246 l 235 268 l 235 324 l 302 470 q 324 537 290 526 l 313 582 l 335 604 q 358 671 324 660 l 358 750 l 403 817 l 391 851 l 313 851 l 279 817 l 44 795 l 0 817 l 0 952 "},"":{"x_min":0,"x_max":1008,"ha":1036,"o":"m 101 471 l 101 280 q 380 84 279 84 l 582 84 l 750 179 q 705 246 772 201 l 637 224 l 559 268 l 548 302 q 649 392 570 392 l 716 347 q 839 257 750 369 l 885 335 l 885 436 l 907 448 l 907 504 l 885 504 l 885 482 l 828 482 l 839 516 q 795 538 795 516 l 772 526 l 761 538 l 772 571 l 570 761 q 515 739 525 773 q 413 761 436 728 l 358 728 q 235 706 235 739 l 245 672 l 178 627 l 123 482 l 101 471 m 873 538 l 873 516 l 907 538 l 907 549 l 873 538 m 907 392 l 907 381 l 918 381 l 918 392 l 907 392 m 929 426 l 929 414 l 952 414 l 952 426 l 929 426 m 0 392 l 11 392 l 0 482 l 44 549 l 44 605 l 78 605 l 123 672 q 201 806 111 716 l 245 817 l 268 862 l 458 935 l 604 935 q 795 828 761 935 l 817 840 l 952 672 q 1008 504 952 549 l 1008 471 l 974 448 l 929 302 l 862 246 l 952 56 l 952 -33 q 918 -178 918 -56 l 895 -168 l 907 -111 l 885 -100 l 885 67 l 828 157 l 805 157 l 727 67 q 637 22 705 89 l 492 -6 l 302 -6 q 0 302 22 142 l 0 392 "},"":{"x_min":0,"x_max":1120,"ha":1020,"o":"m 403 414 l 391 436 l 448 493 l 481 493 l 515 526 l 515 560 l 660 739 l 671 784 q 593 750 593 772 l 503 750 l 492 728 l 425 739 l 335 705 l 325 739 l 302 739 l 291 682 l 190 649 q 67 582 111 548 l 11 660 q 67 784 33 773 l 111 784 q 291 917 156 895 l 369 906 l 391 940 l 604 940 l 682 985 l 773 985 l 783 1007 q 930 1041 885 996 l 930 929 l 907 906 l 918 895 l 739 682 q 682 660 694 694 l 705 615 l 582 458 l 548 458 q 403 279 391 302 l 381 279 l 325 223 l 325 201 q 257 134 268 201 q 313 156 302 123 l 335 123 q 458 123 347 145 l 492 101 l 570 101 l 593 78 l 604 101 q 761 44 728 78 l 783 55 l 806 33 l 828 38 l 974 38 l 996 55 l 1041 11 l 1075 22 l 1120 0 l 1120 -12 l 1086 -12 l 806 -12 l 773 -34 l 773 -12 l 660 -22 l 615 22 l 503 33 l 492 11 l 481 22 l 369 11 l 313 55 l 291 0 l 246 22 l 156 22 l 156 0 l 123 22 q 0 0 111 -12 l 0 11 l 179 223 l 280 279 l 291 324 l 335 335 l 369 414 l 403 414 "},"":{"x_min":-2.5625,"x_max":1108.609375,"ha":1145,"o":"m 112 538 l 112 335 q 414 112 302 123 l 582 112 l 593 134 l 649 123 l 817 212 l 952 324 q 985 503 985 369 l 1007 515 l 996 583 q 918 560 985 548 l 940 594 l 850 616 q 817 717 839 717 l 738 751 l 637 862 l 492 840 l 448 862 q 280 818 425 818 l 268 751 q 179 694 223 751 l 134 548 l 112 538 m 963 605 l 963 594 l 1007 616 l 1007 627 l 963 605 m 1007 459 l 1007 448 l 1019 448 l 1019 459 l 1007 459 m 1029 493 l 1029 482 l 1053 482 l 1053 493 l 1029 493 m 0 459 l 22 470 l 0 571 l 56 627 l 44 683 l 101 706 l 156 828 l 145 840 l 223 918 l 235 907 l 335 996 l 448 1053 l 458 1041 q 503 1064 492 1030 l 660 1064 l 682 1041 l 761 1053 l 873 974 l 873 952 l 873 940 l 907 952 q 1075 717 1007 862 q 1108 594 1041 672 l 1097 594 l 1108 538 l 1063 459 l 1075 436 l 1029 403 l 1041 369 l 795 89 l 761 101 l 727 56 l 716 67 q 537 11 627 22 q 324 22 492 56 l 89 179 l 11 290 l 22 358 q 0 459 -10 380 "},"":{"x_min":0,"x_max":1108.6875,"ha":1155,"o":"m 0 257 q 123 392 33 369 q 235 358 201 426 l 223 313 l 347 223 l 347 145 l 448 168 q 503 156 470 123 l 548 213 l 593 213 l 604 268 l 783 414 l 716 515 l 481 717 l 436 817 l 459 851 l 459 952 q 604 1075 503 1030 l 728 1075 l 728 1053 l 761 1075 l 839 1075 l 862 1053 l 907 1053 q 974 1029 918 1019 l 1108 873 l 1108 817 q 1019 717 1108 728 l 918 717 l 817 784 l 761 784 l 705 817 q 649 873 682 884 q 616 784 616 851 l 593 784 l 593 761 q 638 683 660 717 l 728 615 l 806 459 q 884 560 862 504 l 918 548 q 862 436 895 448 l 873 426 l 795 302 l 750 268 l 772 235 l 705 145 l 682 145 l 570 67 q 537 11 582 22 q 448 -11 448 22 q 370 11 381 -22 q 190 -17 370 -17 l 112 44 l 112 101 l 44 78 l 0 134 l 0 257 "},"":{"x_min":0,"x_max":850.953125,"ha":808,"o":"m 0 246 q 151 414 151 279 l 178 425 l 178 503 l 201 515 l 190 537 q 212 593 223 559 l 245 604 l 223 637 l 257 711 q 392 678 392 711 l 392 582 l 335 515 q 302 425 346 492 l 302 369 l 268 335 l 268 324 q 381 324 346 346 l 459 369 l 515 537 l 537 548 l 526 570 l 627 739 l 615 783 q 672 918 682 873 l 694 918 l 694 761 q 666 627 666 772 l 638 548 l 638 492 l 615 470 l 627 447 q 604 403 593 436 l 694 403 l 705 431 l 850 431 l 850 425 l 817 403 l 750 403 l 672 346 q 604 346 615 324 l 548 290 l 548 212 l 526 201 l 537 178 q 515 123 503 156 l 481 111 q 470 11 503 44 q 335 33 335 0 l 335 134 l 392 201 q 414 268 381 257 l 403 279 q 245 246 346 246 l 145 33 l 100 -11 l 111 -67 q 55 -191 44 -168 l 34 -191 l 34 -45 l 61 -11 l 61 145 l 88 167 l 100 246 l 0 223 l 0 246 "},"":{"x_min":0,"x_max":739,"ha":808,"o":"m 0 101 q 56 224 33 201 l 67 325 l 134 448 q 179 660 123 526 l 201 672 l 201 762 q 179 795 168 762 l 179 941 l 201 963 l 246 941 l 291 985 l 291 952 q 448 650 392 896 l 425 605 l 448 560 l 492 538 q 470 448 458 515 q 515 370 537 404 l 537 381 l 560 560 l 627 672 l 694 963 l 739 1030 l 739 941 l 716 773 l 694 762 q 716 694 683 706 l 694 672 l 694 560 l 672 549 l 672 471 l 650 448 l 650 302 l 627 268 l 627 146 l 604 123 l 582 0 q 604 -89 615 -21 l 560 -66 l 560 -33 q 481 12 526 12 l 425 67 l 448 101 l 448 190 q 470 246 481 213 l 403 325 l 403 404 l 359 404 l 359 493 l 291 538 l 291 583 l 246 560 l 201 112 l 156 17 q 0 44 11 17 l 0 101 "},"":{"x_min":0,"x_max":840.25,"ha":879,"o":"m 0 604 l 22 682 l 44 694 l 33 716 l 78 750 l 33 828 l 101 963 l 257 963 l 302 940 q 235 739 335 828 l 245 694 q 223 638 212 672 l 179 615 l 179 503 l 156 503 l 156 312 q 190 178 190 324 l 257 200 l 324 346 l 358 346 l 426 413 l 414 436 l 437 458 l 437 537 l 459 571 l 437 604 l 459 615 q 482 705 448 682 l 482 806 l 515 840 q 549 985 482 952 l 672 985 q 739 828 773 907 l 717 806 l 683 672 l 661 649 l 661 604 l 638 593 q 616 515 650 548 l 661 526 l 694 571 l 728 560 l 840 627 l 840 571 l 750 481 l 706 481 l 583 380 l 560 145 l 493 133 l 526 78 l 504 -12 l 482 -12 l 504 -89 l 482 -134 q 420 100 420 -67 l 426 111 l 414 212 l 437 245 l 414 268 l 335 123 l 302 123 l 302 66 q 235 33 268 78 l 235 0 l 134 0 l 44 66 l 22 145 l 0 167 l 0 604 "},"":{"x_min":0,"x_max":785.171875,"ha":852,"o":"m 0 728 q 89 852 22 807 q 223 796 178 852 l 235 694 l 257 672 l 257 583 q 168 549 168 571 l 190 526 q 268 526 246 549 l 257 404 l 268 381 l 235 359 l 291 325 l 302 258 l 325 269 q 403 448 313 336 l 448 459 l 425 515 l 515 717 l 548 717 q 627 762 582 762 q 649 852 615 852 l 716 852 q 783 739 795 762 l 761 717 l 716 627 l 649 583 q 526 404 570 404 l 526 370 l 492 336 l 481 269 l 381 168 l 392 146 l 325 67 l 325 -89 l 302 -111 q 268 -257 313 -156 l 235 -245 l 257 -178 l 246 -145 l 257 -44 l 212 -55 l 100 -200 l 78 -190 q 123 -100 145 -122 l 190 -33 l 201 90 l 223 112 l 156 123 l 123 325 q 89 404 66 359 l 66 404 l 100 459 q 56 549 56 448 l 0 627 l 0 728 "},"":{"x_min":0,"x_max":1030,"ha":922,"o":"m 246 392 l 246 381 l 257 381 l 257 392 l 246 392 m 470 515 l 470 493 l 592 503 l 659 481 l 682 526 l 649 615 q 671 716 637 694 l 649 761 l 682 795 l 682 806 l 649 806 q 626 761 649 761 l 637 728 q 514 638 537 615 l 525 582 l 470 515 m 212 359 l 212 381 q 66 392 78 359 l 78 414 l 89 403 l 246 470 l 279 459 l 335 481 l 324 537 l 380 615 l 413 627 q 480 728 380 716 l 492 817 l 548 884 l 548 918 q 615 1046 626 1019 q 783 962 794 1046 q 794 851 761 884 q 761 705 761 851 l 738 481 l 761 459 l 862 470 l 1007 448 l 1030 425 l 1030 403 l 996 425 l 985 409 l 850 409 l 839 392 q 716 369 716 403 q 705 123 738 291 l 727 0 q 677 156 677 11 l 677 359 q 637 403 677 392 l 391 381 l 324 291 l 268 280 l 279 258 l 268 258 l 290 235 l 22 -45 l 0 -45 l 0 -34 l 133 168 l 190 359 l 212 359 "},"":{"x_min":-146,"x_max":794.765625,"ha":863,"o":"m 197 242 l 219 129 l 275 118 l 332 62 l 421 85 q 465 107 421 118 l 488 152 l 533 152 l 622 353 l 645 365 l 645 443 l 611 432 l 577 376 l 510 376 l 510 353 l 376 331 l 376 308 l 332 308 l 332 286 l 242 264 q 185 242 252 230 l 197 242 m -146 134 l 100 280 l 78 347 l 78 605 l 100 627 q 78 716 67 650 l 145 829 q 167 907 134 885 l 201 907 q 246 1008 201 974 l 369 1109 l 526 1109 l 548 1064 l 682 1042 q 705 985 672 997 l 705 885 l 682 874 l 682 818 q 650 773 650 818 l 571 773 l 514 841 q 470 863 470 829 q 369 885 402 851 l 347 841 l 302 841 l 235 773 l 212 661 l 167 661 q 189 593 156 605 l 167 593 l 167 303 l 212 303 l 257 369 l 325 347 l 369 369 l 459 459 l 548 459 l 582 571 l 615 571 l 672 638 l 705 638 l 705 683 l 750 683 q 794 650 750 650 l 794 481 l 705 437 l 705 347 l 560 101 l 514 89 l 481 34 q 425 12 436 45 l 325 12 l 302 -11 l 291 12 q 167 89 257 0 l 156 146 q 112 190 112 146 l -12 168 l -12 146 l -56 146 l -146 101 l -146 134 "},"":{"x_min":0,"x_max":1109,"ha":1085,"o":"m 0 -44 q 78 257 101 235 l 112 280 l 112 426 l 89 471 l 168 538 q 190 616 201 571 l 112 660 l 78 750 l 101 773 q 145 828 78 817 q 213 806 179 795 l 302 895 l 392 918 q 414 817 426 918 l 471 784 l 516 806 l 516 784 l 638 784 q 716 806 649 817 q 784 784 728 773 l 818 806 l 818 784 l 1109 784 l 1109 756 l 682 756 l 672 728 l 571 750 q 548 706 571 706 l 392 706 l 403 682 l 347 649 l 325 560 l 280 538 l 302 482 l 773 482 q 504 426 526 403 l 482 403 l 471 414 l 392 392 q 268 392 369 414 q 213 369 246 359 l 168 291 l 168 224 l 134 224 q 89 101 123 123 l 101 56 l 56 11 l 22 -101 l 0 -101 l 0 -44 "},"":{"x_min":0,"x_max":851,"ha":906,"o":"m 0 89 l 22 156 l 45 167 l 34 190 l 101 324 l 101 391 q 111 447 145 413 l 145 480 l 134 525 l 156 547 q 223 727 145 592 l 212 750 q 235 850 246 772 q 223 907 190 873 l 134 1007 q 167 1098 123 1075 l 190 1098 l 235 1075 l 258 963 l 280 963 l 291 1053 l 325 1041 l 302 895 l 313 839 l 358 795 l 381 659 l 436 637 l 414 581 l 381 592 l 358 659 l 302 738 l 258 693 l 280 581 l 258 559 l 258 503 l 235 480 l 235 324 l 190 268 l 223 245 l 201 190 l 201 100 l 167 33 l 101 -22 l 45 0 l 45 22 l 0 66 l 0 89 m 638 1041 q 750 996 716 1064 q 851 1030 795 1075 l 851 985 l 806 918 l 773 918 l 728 873 q 694 750 739 772 l 716 682 l 694 659 q 649 537 716 537 l 672 480 l 649 447 l 672 413 l 649 403 l 649 358 l 615 313 q 638 268 649 313 l 615 245 l 571 0 l 548 11 l 571 235 l 571 413 l 548 447 l 571 480 l 548 503 l 576 547 l 576 727 l 571 738 l 493 693 l 493 727 l 571 828 l 571 929 l 593 952 l 571 985 l 638 1041 "},"":{"x_min":0,"x_max":1008,"ha":1036,"o":"m 101 471 l 101 280 q 380 84 279 84 l 582 84 l 750 179 q 705 246 772 201 l 637 224 l 559 268 l 548 302 q 649 392 570 392 l 716 347 q 839 257 750 369 l 885 335 l 885 436 l 907 448 l 907 504 l 885 504 l 885 482 l 828 482 l 839 516 q 795 538 795 516 l 772 526 l 761 538 l 772 571 l 570 761 q 515 739 525 773 q 413 761 436 728 l 358 728 q 235 706 235 739 l 245 672 l 178 627 l 123 482 l 101 471 m 873 538 l 873 516 l 907 538 l 907 549 l 873 538 m 907 392 l 907 381 l 918 381 l 918 392 l 907 392 m 929 426 l 929 414 l 952 414 l 952 426 l 929 426 m 0 392 l 11 392 l 0 482 l 44 549 l 44 605 l 78 605 l 123 672 q 201 806 111 716 l 245 817 l 268 862 l 458 935 l 604 935 q 795 828 761 935 l 817 840 l 952 672 q 1008 504 952 549 l 1008 471 l 974 448 l 929 302 l 862 246 l 952 56 l 952 -33 q 918 -178 918 -56 l 895 -168 l 907 -111 l 885 -100 l 885 67 l 828 157 l 805 157 l 727 67 q 637 22 705 89 l 492 -6 l 302 -6 q 0 302 22 142 l 0 392 "},"":{"x_min":0.1875,"x_max":537.84375,"ha":597,"o":"m 0 1041 l 56 1098 l 146 1041 q 201 885 146 940 q 201 806 179 862 l 246 761 l 268 672 l 291 672 q 358 840 291 773 q 358 929 335 907 q 392 1041 414 963 l 448 1098 l 493 1098 l 537 1053 l 526 940 l 313 548 l 425 335 l 526 -11 q 425 223 403 212 l 268 470 l 156 280 l 44 -11 l 156 391 l 223 515 l 213 526 l 235 570 l 11 940 l 0 1041 "},"":{"x_min":0,"x_max":690.015625,"ha":749,"o":"m 223 571 l 235 504 q 347 526 268 538 l 359 549 q 538 627 381 515 l 526 650 l 504 638 l 459 661 l 302 661 l 223 571 m 0 101 l 67 381 l 67 404 l 0 404 q 89 471 0 481 l 134 605 l 123 627 l 145 650 q 168 717 134 706 l 123 751 l 134 761 l 123 818 q 246 941 201 851 l 325 941 l 392 918 q 370 829 403 829 l 650 751 q 683 605 706 717 l 605 515 l 493 493 l 471 471 q 291 426 335 493 l 370 381 l 370 325 l 504 112 l 493 101 l 593 -21 l 650 -145 l 627 -178 q 560 -145 593 -190 l 538 -100 l 291 146 l 291 179 l 156 325 l 123 280 l 134 235 l 67 101 l 78 67 q 56 12 44 45 l 0 34 l 0 101 "},"":{"x_min":0,"x_max":690.015625,"ha":749,"o":"m 223 571 l 235 504 q 347 526 268 538 l 359 549 q 538 627 381 515 l 526 650 l 504 638 l 459 661 l 302 661 l 223 571 m 0 101 l 67 381 l 67 404 l 0 404 q 89 471 0 481 l 134 605 l 123 627 l 145 650 q 168 717 134 706 l 123 751 l 134 761 l 123 818 q 246 941 201 851 l 325 941 l 392 918 q 370 829 403 829 l 650 751 q 683 605 706 717 l 605 515 l 493 493 l 471 471 q 291 426 335 493 l 370 381 l 370 325 l 504 112 l 493 101 l 593 -21 l 650 -145 l 627 -178 q 560 -145 593 -190 l 538 -100 l 291 146 l 291 179 l 156 325 l 123 280 l 134 235 l 67 101 l 78 67 q 56 12 44 45 l 0 34 l 0 101 "},"":{"x_min":0,"x_max":1109,"ha":1085,"o":"m 0 -44 q 78 257 101 235 l 112 280 l 112 426 l 89 471 l 168 538 q 190 616 201 571 l 112 660 l 78 750 l 101 773 q 145 828 78 817 q 213 806 179 795 l 302 895 l 392 918 q 414 817 426 918 l 471 784 l 516 806 l 516 784 l 638 784 q 716 806 649 817 q 784 784 728 773 l 818 806 l 818 784 l 1109 784 l 1109 756 l 682 756 l 672 728 l 571 750 q 548 706 571 706 l 392 706 l 403 682 l 347 649 l 325 560 l 280 538 l 302 482 l 773 482 q 504 426 526 403 l 482 403 l 471 414 l 392 392 q 268 392 369 414 q 213 369 246 359 l 168 291 l 168 224 l 134 224 q 89 101 123 123 l 101 56 l 56 11 l 22 -101 l 0 -101 l 0 -44 "},"":{"x_min":0,"x_max":851,"ha":906,"o":"m 0 89 l 22 156 l 45 167 l 34 190 l 101 324 l 101 391 q 111 447 145 413 l 145 480 l 134 525 l 156 547 q 223 727 145 592 l 212 750 q 235 850 246 772 q 223 907 190 873 l 134 1007 q 167 1098 123 1075 l 190 1098 l 235 1075 l 258 963 l 280 963 l 291 1053 l 325 1041 l 302 895 l 313 839 l 358 795 l 381 659 l 436 637 l 414 581 l 381 592 l 358 659 l 302 738 l 258 693 l 280 581 l 258 559 l 258 503 l 235 480 l 235 324 l 190 268 l 223 245 l 201 190 l 201 100 l 167 33 l 101 -22 l 45 0 l 45 22 l 0 66 l 0 89 m 638 1041 q 750 996 716 1064 q 851 1030 795 1075 l 851 985 l 806 918 l 773 918 l 728 873 q 694 750 739 772 l 716 682 l 694 659 q 649 537 716 537 l 672 480 l 649 447 l 672 413 l 649 403 l 649 358 l 615 313 q 638 268 649 313 l 615 245 l 571 0 l 548 11 l 571 235 l 571 413 l 548 447 l 571 480 l 548 503 l 576 547 l 576 727 l 571 738 l 493 693 l 493 727 l 571 828 l 571 929 l 593 952 l 571 985 l 638 1041 "},"":{"x_min":0,"x_max":1030.140625,"ha":1069,"o":"m 0 179 q 111 235 56 157 l 201 526 q 245 638 190 649 l 235 716 l 290 795 l 279 828 l 324 851 q 335 974 279 929 l 481 974 q 504 828 515 963 l 437 739 l 437 694 l 392 627 l 392 560 l 347 515 l 347 470 l 302 403 l 313 391 l 279 358 l 290 324 l 257 290 l 268 268 l 235 223 l 245 184 l 515 184 l 560 157 l 582 190 l 593 184 l 750 184 q 851 157 773 134 l 907 157 q 1030 179 940 212 l 1030 168 q 885 112 940 168 l 873 123 l 840 123 l 817 89 q 706 56 784 123 l 605 56 l 593 34 l 201 34 q 134 11 190 0 l 67 -134 l 67 11 l 0 101 l 0 179 "},"":{"x_min":0,"x_max":440.046875,"ha":467,"o":"m 0 45 l 22 224 l 89 459 q 134 616 134 493 l 178 627 l 167 717 l 223 795 l 212 829 l 257 851 q 268 975 212 930 l 414 975 q 437 829 448 963 l 370 739 l 370 694 l 324 627 q 257 504 359 549 l 257 448 l 235 426 l 245 392 l 212 359 q 190 302 245 313 l 201 258 l 156 213 l 89 78 l 89 11 l 44 -44 l 22 -134 l 0 -134 l 0 45 "},"":{"x_min":0,"x_max":1120,"ha":1107,"o":"m 0 100 q 134 111 67 145 q 190 257 134 268 q 167 312 201 301 l 190 335 l 167 392 l 190 392 l 156 458 l 246 537 l 257 604 l 167 649 q 145 728 178 705 l 156 811 l 302 811 q 381 917 313 884 l 471 917 l 471 806 q 515 783 515 806 l 548 806 l 582 783 q 615 783 593 806 l 626 806 l 671 783 q 772 806 682 817 l 795 783 l 839 800 l 1120 800 l 1120 750 l 850 750 q 660 728 795 761 l 626 750 l 604 705 l 459 705 l 392 637 l 381 548 l 359 548 l 359 464 l 839 464 q 615 403 660 436 l 559 414 l 537 386 q 347 358 359 386 l 335 369 q 280 346 313 335 l 190 116 l 347 116 l 359 89 l 392 111 l 426 89 q 459 89 437 111 l 471 111 l 515 89 l 548 111 l 671 89 l 694 111 l 839 89 q 985 78 974 111 q 705 44 805 78 q 503 33 626 66 l 471 55 l 448 5 l 246 5 q 145 -34 201 -56 l 111 -67 l 56 -190 l 89 -79 l 22 -45 q 0 11 33 0 l 0 100 "},"":{"x_min":0.1875,"x_max":537.84375,"ha":597,"o":"m 0 1041 l 56 1098 l 146 1041 q 201 885 146 940 q 201 806 179 862 l 246 761 l 268 672 l 291 672 q 358 840 291 773 q 358 929 335 907 q 392 1041 414 963 l 448 1098 l 493 1098 l 537 1053 l 526 940 l 313 548 l 425 335 l 526 -11 q 425 223 403 212 l 268 470 l 156 280 l 44 -11 l 156 391 l 223 515 l 213 526 l 235 570 l 11 940 l 0 1041 "},"":{"x_min":-190,"x_max":706,"ha":770,"o":"m 403 437 l 403 426 l 414 426 l 414 437 l 403 437 m 241 410 l 241 387 l 363 421 q 521 500 453 500 l 498 589 l 476 601 l 487 645 l 419 634 q 352 668 408 690 l 330 578 l 285 567 q 241 410 296 511 m 90 125 l 78 180 l 112 281 l 135 270 q 101 326 145 315 l 179 405 l 157 416 l 224 629 l 247 651 l 247 696 q 179 786 169 718 l 224 875 q 303 909 303 887 l 291 931 q 313 988 325 954 l 336 998 l 392 998 l 437 976 l 460 897 l 437 853 l 572 797 l 572 752 q 594 495 695 718 l 403 394 q 213 338 336 394 l 90 36 l 78 -19 l 191 14 l 269 14 q 369 46 336 69 l 403 80 l 471 69 l 471 102 l 527 113 q 572 135 516 147 q 561 214 538 169 q 549 304 516 225 q 403 360 460 214 q 504 428 425 416 l 572 428 l 594 394 q 695 349 661 416 l 683 315 l 706 304 l 706 169 l 650 135 l 661 113 q 56 -64 538 -19 l 34 -120 l 34 -76 q -190 -109 -10 -64 l -190 -98 l 45 -30 l 67 125 l 90 125 "},"":{"x_min":-5.75,"x_max":1030.921875,"ha":1059,"o":"m 0 302 l 11 369 l 34 380 l 22 425 l 45 448 l 67 570 l 112 604 q 123 694 89 671 l 280 873 l 348 862 q 404 963 348 929 l 516 1018 l 650 1058 l 807 1058 l 841 1029 l 829 974 l 919 996 q 997 963 930 963 l 1030 907 l 1030 851 l 997 817 q 885 694 1008 739 q 773 750 829 671 l 784 795 l 762 773 l 605 806 l 561 851 l 561 806 q 280 638 449 817 q 201 615 224 649 l 235 593 q 146 324 168 526 l 112 290 l 157 268 l 157 212 l 213 134 l 201 89 l 360 33 q 504 78 360 11 l 538 66 l 628 111 l 784 245 l 773 190 l 628 56 l 538 11 l 494 22 l 437 -34 l 427 -22 l 303 -56 l 280 -22 q 190 -45 258 -56 l 56 78 l 89 134 l 34 134 l 11 167 l 34 201 q 0 302 -21 245 "},"":{"x_min":0,"x_max":1120,"ha":1107,"o":"m 0 100 q 134 111 67 145 q 190 257 134 268 q 167 312 201 301 l 190 335 l 167 392 l 190 392 l 156 458 l 246 537 l 257 604 l 167 649 q 145 728 178 705 l 156 811 l 302 811 q 381 917 313 884 l 471 917 l 471 806 q 515 783 515 806 l 548 806 l 582 783 q 615 783 593 806 l 626 806 l 671 783 q 772 806 682 817 l 795 783 l 839 800 l 1120 800 l 1120 750 l 850 750 q 660 728 795 761 l 626 750 l 604 705 l 459 705 l 392 637 l 381 548 l 359 548 l 359 464 l 839 464 q 615 403 660 436 l 559 414 l 537 386 q 347 358 359 386 l 335 369 q 280 346 313 335 l 190 116 l 347 116 l 359 89 l 392 111 l 426 89 q 459 89 437 111 l 471 111 l 515 89 l 548 111 l 671 89 l 694 111 l 839 89 q 985 78 974 111 q 705 44 805 78 q 503 33 626 66 l 471 55 l 448 5 l 246 5 q 145 -34 201 -56 l 111 -67 l 56 -190 l 89 -79 l 22 -45 q 0 11 33 0 l 0 100 "},"":{"x_min":0,"x_max":440.046875,"ha":467,"o":"m 0 45 l 22 224 l 89 459 q 134 616 134 493 l 178 627 l 167 717 l 223 795 l 212 829 l 257 851 q 268 975 212 930 l 414 975 q 437 829 448 963 l 370 739 l 370 694 l 324 627 q 257 504 359 549 l 257 448 l 235 426 l 245 392 l 212 359 q 190 302 245 313 l 201 258 l 156 213 l 89 78 l 89 11 l 44 -44 l 22 -134 l 0 -134 l 0 45 "},"":{"x_min":0.328125,"x_max":807,"ha":863,"o":"m 414 835 l 414 706 l 593 448 q 734 290 683 381 l 734 145 l 706 45 l 672 45 l 660 -11 q 504 -134 560 -134 q 313 -134 448 -111 l 112 -11 q 79 89 123 78 l 79 257 q 201 324 179 335 q 280 403 213 381 q 392 403 336 381 l 470 347 q 403 179 504 280 l 336 179 l 325 212 q 224 257 280 280 l 218 212 l 218 67 l 280 11 l 302 22 l 369 -34 l 493 -34 l 593 45 l 649 123 q 593 268 672 235 l 593 313 l 548 403 l 504 425 l 470 503 l 414 548 l 426 560 l 336 739 l 336 817 l 213 750 l 179 761 l 112 750 q 11 717 79 717 l 0 728 l 89 806 l 403 929 l 807 974 l 807 962 q 615 884 672 929 l 582 895 l 548 868 q 414 835 414 868 "},"":{"x_min":-146,"x_max":794.765625,"ha":863,"o":"m 197 242 l 219 129 l 275 118 l 332 62 l 421 85 q 465 107 421 118 l 488 152 l 533 152 l 622 353 l 645 365 l 645 443 l 611 432 l 577 376 l 510 376 l 510 353 l 376 331 l 376 308 l 332 308 l 332 286 l 242 264 q 185 242 252 230 l 197 242 m -146 134 l 100 280 l 78 347 l 78 605 l 100 627 q 78 716 67 650 l 145 829 q 167 907 134 885 l 201 907 q 246 1008 201 974 l 369 1109 l 526 1109 l 548 1064 l 682 1042 q 705 985 672 997 l 705 885 l 682 874 l 682 818 q 650 773 650 818 l 571 773 l 514 841 q 470 863 470 829 q 369 885 402 851 l 347 841 l 302 841 l 235 773 l 212 661 l 167 661 q 189 593 156 605 l 167 593 l 167 303 l 212 303 l 257 369 l 325 347 l 369 369 l 459 459 l 548 459 l 582 571 l 615 571 l 672 638 l 705 638 l 705 683 l 750 683 q 794 650 750 650 l 794 481 l 705 437 l 705 347 l 560 101 l 514 89 l 481 34 q 425 12 436 45 l 325 12 l 302 -11 l 291 12 q 167 89 257 0 l 156 146 q 112 190 112 146 l -12 168 l -12 146 l -56 146 l -146 101 l -146 134 "},"":{"x_min":0,"x_max":785.171875,"ha":852,"o":"m 0 728 q 89 852 22 807 q 223 796 178 852 l 235 694 l 257 672 l 257 583 q 168 549 168 571 l 190 526 q 268 526 246 549 l 257 404 l 268 381 l 235 359 l 291 325 l 302 258 l 325 269 q 403 448 313 336 l 448 459 l 425 515 l 515 717 l 548 717 q 627 762 582 762 q 649 852 615 852 l 716 852 q 783 739 795 762 l 761 717 l 716 627 l 649 583 q 526 404 570 404 l 526 370 l 492 336 l 481 269 l 381 168 l 392 146 l 325 67 l 325 -89 l 302 -111 q 268 -257 313 -156 l 235 -245 l 257 -178 l 246 -145 l 257 -44 l 212 -55 l 100 -200 l 78 -190 q 123 -100 145 -122 l 190 -33 l 201 90 l 223 112 l 156 123 l 123 325 q 89 404 66 359 l 66 404 l 100 459 q 56 549 56 448 l 0 627 l 0 728 "},"":{"x_min":0,"x_max":840.25,"ha":879,"o":"m 0 604 l 22 682 l 44 694 l 33 716 l 78 750 l 33 828 l 101 963 l 257 963 l 302 940 q 235 739 335 828 l 245 694 q 223 638 212 672 l 179 615 l 179 503 l 156 503 l 156 312 q 190 178 190 324 l 257 200 l 324 346 l 358 346 l 426 413 l 414 436 l 437 458 l 437 537 l 459 571 l 437 604 l 459 615 q 482 705 448 682 l 482 806 l 515 840 q 549 985 482 952 l 672 985 q 739 828 773 907 l 717 806 l 683 672 l 661 649 l 661 604 l 638 593 q 616 515 650 548 l 661 526 l 694 571 l 728 560 l 840 627 l 840 571 l 750 481 l 706 481 l 583 380 l 560 145 l 493 133 l 526 78 l 504 -12 l 482 -12 l 504 -89 l 482 -134 q 420 100 420 -67 l 426 111 l 414 212 l 437 245 l 414 268 l 335 123 l 302 123 l 302 66 q 235 33 268 78 l 235 0 l 134 0 l 44 66 l 22 145 l 0 167 l 0 604 "},"":{"x_min":0,"x_max":1030.140625,"ha":1069,"o":"m 0 179 q 111 235 56 157 l 201 526 q 245 638 190 649 l 235 716 l 290 795 l 279 828 l 324 851 q 335 974 279 929 l 481 974 q 504 828 515 963 l 437 739 l 437 694 l 392 627 l 392 560 l 347 515 l 347 470 l 302 403 l 313 391 l 279 358 l 290 324 l 257 290 l 268 268 l 235 223 l 245 184 l 515 184 l 560 157 l 582 190 l 593 184 l 750 184 q 851 157 773 134 l 907 157 q 1030 179 940 212 l 1030 168 q 885 112 940 168 l 873 123 l 840 123 l 817 89 q 706 56 784 123 l 605 56 l 593 34 l 201 34 q 134 11 190 0 l 67 -134 l 67 11 l 0 101 l 0 179 "},"":{"x_min":0,"x_max":739,"ha":808,"o":"m 0 101 q 56 224 33 201 l 67 325 l 134 448 q 179 660 123 526 l 201 672 l 201 762 q 179 795 168 762 l 179 941 l 201 963 l 246 941 l 291 985 l 291 952 q 448 650 392 896 l 425 605 l 448 560 l 492 538 q 470 448 458 515 q 515 370 537 404 l 537 381 l 560 560 l 627 672 l 694 963 l 739 1030 l 739 941 l 716 773 l 694 762 q 716 694 683 706 l 694 672 l 694 560 l 672 549 l 672 471 l 650 448 l 650 302 l 627 268 l 627 146 l 604 123 l 582 0 q 604 -89 615 -21 l 560 -66 l 560 -33 q 481 12 526 12 l 425 67 l 448 101 l 448 190 q 470 246 481 213 l 403 325 l 403 404 l 359 404 l 359 493 l 291 538 l 291 583 l 246 560 l 201 112 l 156 17 q 0 44 11 17 l 0 101 "},"":{"x_min":-0.421875,"x_max":649,"ha":699,"o":"m 447 157 l 447 134 l 459 134 l 459 157 l 447 157 m 5 156 l 5 470 l 33 481 l 0 526 l 33 582 l 21 649 l 44 672 l 44 784 l 16 784 q 134 941 16 974 l 167 930 l 156 918 q 178 582 212 851 l 234 627 l 324 773 l 515 975 q 649 930 649 975 l 649 918 l 570 896 q 223 515 447 795 l 257 414 l 492 145 l 481 123 l 459 134 l 503 56 l 436 112 l 413 112 q 245 359 335 190 l 178 426 l 178 325 l 161 313 l 161 123 q 134 -145 134 101 l 100 67 l 78 89 l 55 22 l 44 123 l 21 134 l 5 101 l 5 156 "},"":{"x_min":-1.5,"x_max":638.09375,"ha":700,"o":"m 202 583 l 202 369 q 235 67 235 347 l 325 22 l 335 0 l 415 11 l 415 0 q 493 22 437 34 l 471 56 q 537 157 526 101 l 554 146 l 554 335 l 526 392 l 548 392 l 526 425 l 481 436 l 426 538 l 347 583 l 325 571 l 325 605 q 280 583 291 616 l 202 583 m 0 717 q 79 762 34 762 q 146 919 22 885 l 157 919 q 191 778 213 896 q 481 605 381 778 l 537 571 l 615 436 q 593 369 627 381 l 638 324 l 638 101 l 604 34 l 570 34 l 560 -11 l 493 -67 q 392 -44 415 -78 l 370 -67 l 246 11 l 224 0 q 224 -201 246 -56 l 202 34 l 79 179 l 79 201 l 191 90 l 202 90 l 134 504 q 56 549 123 538 q 0 706 -10 616 l 0 717 "},"":{"x_min":0,"x_max":1108.6875,"ha":1155,"o":"m 0 257 q 123 392 33 369 q 235 358 201 426 l 223 313 l 347 223 l 347 145 l 448 168 q 503 156 470 123 l 548 213 l 593 213 l 604 268 l 783 414 l 716 515 l 481 717 l 436 817 l 459 851 l 459 952 q 604 1075 503 1030 l 728 1075 l 728 1053 l 761 1075 l 839 1075 l 862 1053 l 907 1053 q 974 1029 918 1019 l 1108 873 l 1108 817 q 1019 717 1108 728 l 918 717 l 817 784 l 761 784 l 705 817 q 649 873 682 884 q 616 784 616 851 l 593 784 l 593 761 q 638 683 660 717 l 728 615 l 806 459 q 884 560 862 504 l 918 548 q 862 436 895 448 l 873 426 l 795 302 l 750 268 l 772 235 l 705 145 l 682 145 l 570 67 q 537 11 582 22 q 448 -11 448 22 q 370 11 381 -22 q 190 -17 370 -17 l 112 44 l 112 101 l 44 78 l 0 134 l 0 257 "}}}
